<?xml version="1.0" standalone="no"?>
<!DOCTYPE svg PUBLIC "-//W3C//DTD SVG 20010904//EN"
 "http://www.w3.org/TR/2001/REC-SVG-20010904/DTD/svg10.dtd">
<svg version="1.0" xmlns="http://www.w3.org/2000/svg"
 width="62.000000pt" height="59.000000pt" viewBox="0 0 62.000000 59.000000"
 preserveAspectRatio="xMidYMid meet">

<g transform="translate(0.000000,59.000000) scale(0.100000,-0.100000)"
fill="#000000" stroke="none">
<path d="M441 474 c-23 -53 -40 -98 -38 -100 2 -2 22 40 45 93 23 53 40 98 38
100 -2 2 -22 -40 -45 -93z"/>
<path d="M57 553 c-11 -11 -8 -23 6 -20 8 1 14 -23 18 -83 l5 -85 2 98 c2 75
-1 97 -11 97 -8 0 -17 -3 -20 -7z"/>
<path d="M146 544 c-11 -28 -6 -150 6 -162 18 -18 46 -14 58 7 13 25 13 127 0
152 -13 23 -55 25 -64 3z m49 -75 c0 -62 -3 -74 -17 -77 -16 -3 -18 5 -18 71
0 40 3 77 7 81 19 18 28 -6 28 -75z"/>
<path d="M267 554 c-4 -4 -7 -45 -7 -91 0 -68 3 -85 16 -90 37 -14 49 10 49
98 0 82 0 84 -25 87 -14 2 -29 0 -33 -4z m43 -90 c0 -66 -2 -75 -17 -72 -15 3
-19 16 -21 66 -3 62 10 98 29 86 5 -3 9 -39 9 -80z"/>
<path d="M372 508 c3 -45 6 -53 23 -53 17 0 20 7 20 50 0 45 -2 50 -23 53 -22
3 -23 1 -20 -50z m28 -3 c0 -25 -4 -45 -10 -45 -5 0 -10 20 -10 45 0 25 5 45
10 45 6 0 10 -20 10 -45z"/>
<path d="M470 430 c0 -37 4 -52 16 -57 23 -8 35 15 32 62 -3 33 -7 41 -25 43
-21 3 -23 0 -23 -48z m30 -6 c0 -27 -4 -43 -10 -39 -5 3 -10 24 -10 46 0 21 5
39 10 39 6 0 10 -21 10 -46z"/>
<path d="M220 195 c0 -113 2 -135 15 -135 12 0 15 13 15 55 0 54 1 55 28 55
41 0 62 28 62 83 0 55 -24 77 -82 77 l-38 0 0 -135z m93 72 c11 -34 -13 -77
-43 -77 -18 0 -20 7 -20 56 0 54 1 55 27 52 19 -2 29 -11 36 -31z"/>
</g>
</svg>
