<?xml version="1.0" standalone="no"?>
<!DOCTYPE svg PUBLIC "-//W3C//DTD SVG 20010904//EN"
 "http://www.w3.org/TR/2001/REC-SVG-20010904/DTD/svg10.dtd">
<svg version="1.0" xmlns="http://www.w3.org/2000/svg"
 width="74.000000pt" height="70.000000pt" viewBox="0 0 74.000000 70.000000"
 preserveAspectRatio="xMidYMid meet">

<g transform="translate(0.000000,70.000000) scale(0.100000,-0.100000)"
fill="#000000" stroke="none">
<path d="M20 664 c0 -4 24 -51 54 -105 l55 -99 -61 -108 -60 -107 22 -40 c13
-22 40 -70 62 -108 l39 -67 284 0 284 0 -59 105 c-33 58 -60 107 -60 109 0 2
27 51 59 109 l59 106 -56 106 -57 105 -282 0 c-156 0 -283 -3 -283 -6z m602
-94 c26 -47 47 -91 48 -98 0 -10 -56 -12 -262 -10 l-263 3 -52 90 c-29 50 -52
93 -53 98 0 4 120 6 267 5 l267 -3 48 -85z m48 -126 c0 -4 -23 -47 -52 -98
-28 -50 -51 -96 -51 -102 0 -6 23 -51 51 -101 29 -50 52 -93 52 -97 0 -3 -120
-5 -266 -4 l-267 3 -55 99 -56 99 27 51 c15 28 41 75 57 104 l30 52 265 0
c146 0 265 -3 265 -6z"/>
<path d="M200 405 c-7 -9 -9 -19 -5 -23 4 -4 10 -1 12 6 3 6 9 12 14 12 15 0
10 -39 -11 -80 -26 -50 -26 -50 10 -50 17 0 30 5 30 10 0 6 -9 10 -20 10 -19
0 -19 0 0 43 24 51 25 73 4 81 -21 8 -20 8 -34 -9z"/>
<path d="M274 405 c-4 -9 -4 -19 0 -22 3 -4 6 -1 6 5 0 7 7 12 15 12 17 0 20
-35 4 -46 -8 -4 -8 -9 0 -17 6 -6 11 -20 11 -30 0 -15 -5 -18 -21 -14 -13 3
-19 1 -16 -6 2 -7 12 -12 23 -12 17 0 19 8 19 70 0 58 -3 70 -18 73 -9 2 -20
-4 -23 -13z"/>
<path d="M374 406 c-3 -7 -4 -40 -2 -72 3 -51 6 -59 23 -59 18 0 20 8 23 64 2
45 -1 67 -10 72 -19 12 -28 11 -34 -5z m36 -61 c0 -42 -3 -55 -15 -55 -12 0
-15 13 -15 55 0 42 3 55 15 55 12 0 15 -13 15 -55z"/>
<path d="M86 255 c-71 -21 -21 -27 211 -27 225 0 286 9 204 30 -23 5 -41 6
-41 1 0 -11 -327 -12 -332 -1 -1 4 -21 3 -42 -3z"/>
</g>
</svg>
